Coordinates
version=1
nRows=43
nColumns=12
inDegrees=yes

Units are S.I. units (second, meters, Newtons, ...)
Angles are in degrees

endheader
time	SC_y	SC_z	SC_x	AC_y	AC_z	AC_x	GH_y	GH_z	GH_yy	EL_x	PS_y
       0.0              -23.33          27.97          25.69          38.68          9.742          -2.05         -14.51          11.87         -120.9          65.42          74.98
   0.04944              -23.33          27.97          25.69          38.69           9.74         -2.048         -14.49          11.87         -120.9          65.41          74.98
   0.09887              -23.33          27.97          25.69          38.69          9.737         -2.047         -14.48          11.88         -120.9          65.41          74.97
    0.1483              -23.33          27.98           25.7          38.69          9.733         -2.044         -14.46          11.89         -120.9           65.4          74.96
    0.1977              -23.33          27.98           25.7          38.69           9.73         -2.042         -14.45          11.89         -120.9          65.39          74.95
    0.2472              -23.33          27.98           25.7           38.7          9.726          -2.04         -14.43           11.9         -120.9          65.39          74.94
    0.2966              -23.33          27.98          25.71           38.7          9.723         -2.038         -14.41          11.91         -121.0          65.38          74.93
     0.346              -23.33          27.98          25.71           38.7          9.718         -2.035         -14.39          11.92         -121.0          65.37          74.92
    0.3955              -23.33          27.99          25.72          38.71          9.714         -2.032         -14.37          11.93         -121.0          65.36          74.91
    0.4449              -23.33          27.99          25.72          38.71          9.709         -2.029         -14.35          11.94         -121.0          65.35          74.89
    0.4944              -23.33          27.99          25.73          38.72          9.704         -2.026         -14.33          11.95         -121.0          65.34          74.88
    0.5438              -23.33           28.0          25.74          38.72          9.699         -2.022          -14.3          11.96         -121.0          65.33          74.87
    0.5932              -23.33           28.0          25.74          38.72          9.693         -2.018         -14.27          11.97         -121.0          65.32          74.85
    0.6427              -23.34           28.0          25.75          38.73          9.687         -2.014         -14.25          11.98         -121.0          65.31          74.83
    0.6921              -23.34          28.01          25.76          38.74           9.68          -2.01         -14.21           12.0         -121.0          65.29          74.81
    0.7415              -23.34          28.01          25.77          38.74          9.672         -2.005         -14.18          12.01         -121.0          65.28          74.79
     0.791              -23.34          28.02          25.78          38.75          9.664           -2.0         -14.14          12.03         -121.1          65.26          74.77
    0.8404              -23.34          28.02          25.79          38.76          9.655         -1.994          -14.1          12.05         -121.1          65.24          74.75
    0.8898              -23.34          28.03           25.8          38.76          9.646         -1.988         -14.05          12.07         -121.1          65.22          74.72
    0.9393              -23.34          28.03          25.81          38.77          9.635         -1.981         -14.01          12.09         -121.1           65.2          74.69
    0.9887              -23.34          28.04          25.82          38.78          9.623         -1.974         -13.95          12.11         -121.1          65.18          74.66
     1.038              -23.34          28.05          25.84          38.79          9.611         -1.966         -13.89          12.14         -121.1          65.15          74.63
     1.088              -23.35          28.05          25.86          38.81          9.596         -1.957         -13.83          12.17         -121.2          65.12          74.59
     1.137              -23.35          28.06          25.87          38.82          9.581         -1.946         -13.75           12.2         -121.2          65.09          74.54
     1.186              -23.35          28.07          25.89          38.83          9.563         -1.935         -13.67          12.24         -121.2          65.06           74.5
     1.236              -23.35          28.08          25.92          38.85          9.544         -1.923         -13.58          12.28         -121.3          65.02          74.45
     1.285              -23.36           28.1          25.94          38.87          9.522         -1.909         -13.48          12.32         -121.3          64.98          74.39
     1.335              -23.36          28.11          25.97          38.89          9.498         -1.893         -13.37          12.37         -121.3          64.93          74.32
     1.384              -23.36          28.13           26.0          38.91           9.47         -1.875         -13.24          12.43         -121.4          64.87          74.24
     1.434              -23.37          28.14          26.04          38.94          9.439         -1.855         -13.09           12.5         -121.4          64.81          74.16
     1.483              -23.37          28.16          26.08          38.97          9.403         -1.832         -12.93          12.57         -121.5          64.74          74.06
     1.533              -23.37          28.19          26.13           39.0          9.362         -1.806         -12.74          12.66         -121.6          64.65          73.95
     1.582              -23.38          28.22          26.18          39.04          9.314         -1.775         -12.52          12.75         -121.7          64.56          73.82
     1.631              -23.39          28.25          26.25          39.09          9.259          -1.74         -12.26          12.87         -121.7          64.45          73.67
     1.681               -23.4          28.28          26.32          39.14          9.195         -1.699         -11.96           13.0         -121.9          64.32           73.5
      1.73               -23.4          28.33          26.41          39.21          9.119          -1.65         -11.61          13.16         -122.0          64.17          73.29
      1.78              -23.42          28.38          26.52          39.28          9.028         -1.592         -11.18          13.35         -122.1          63.99          73.05
     1.829              -23.43          28.44          26.64          39.37           8.92         -1.522         -10.68          13.57         -122.3          63.77          72.75
     1.879              -23.44          28.52          26.79          39.48          8.789         -1.438         -10.07          13.84         -122.6          63.51           72.4
     1.928              -23.46          28.61          26.98          39.62          8.629         -1.335         -9.327          14.17         -122.8          63.19          71.96
     1.977              -23.49          28.72          27.21          39.78          8.431         -1.208         -8.409          14.58         -123.2          62.79          71.43
     2.027              -23.52          28.86          27.49          39.99          8.185          -1.05         -7.263          15.09         -123.6           62.3          70.76
     2.076              -23.56          29.04          27.86          40.25          7.875         -0.851          -5.82          15.73         -124.1          61.68          69.92
